<svg xmlns="http://www.w3.org/2000/svg" xmlns:xlink="http://www.w3.org/1999/xlink" width="343" zoomAndPan="magnify" viewBox="0 0 257.25 154.499995" height="206" preserveAspectRatio="xMidYMid meet" version="1.0"><defs><g/><clipPath id="161a49467f"><path d="M 0.0429688 0 L 256.460938 0 L 256.460938 154 L 0.0429688 154 Z M 0.0429688 0 " clip-rule="nonzero"/></clipPath></defs><g clip-path="url(#161a49467f)"><path fill="#ffffff" d="M 0.0429688 0 L 257.207031 0 L 257.207031 161.476562 L 0.0429688 161.476562 Z M 0.0429688 0 " fill-opacity="1" fill-rule="nonzero"/><path fill="#ffffff" d="M 0.0429688 0 L 256.460938 0 L 256.460938 154 L 0.0429688 154 Z M 0.0429688 0 " fill-opacity="1" fill-rule="nonzero"/><path fill="#ffffff" d="M 0.0429688 0 L 256.460938 0 L 256.460938 154 L 0.0429688 154 Z M 0.0429688 0 " fill-opacity="1" fill-rule="nonzero"/></g><g fill="#000000" fill-opacity="1"><g transform="translate(27.12224, 92.301331)"><g><path d="M 17.09375 0 L 15.203125 -5.4375 L 7.109375 -5.4375 L 5.21875 0 L 0.765625 0 L 8.515625 -21.25 L 13.765625 -21.25 L 21.5 0 Z M 11.140625 -17.984375 L 11.0625 -17.640625 C 10.957031 -17.285156 10.832031 -16.875 10.6875 -16.40625 C 10.550781 -15.945312 9.6875 -13.40625 8.09375 -8.78125 L 14.203125 -8.78125 L 12.109375 -14.890625 L 11.46875 -16.9375 Z M 11.140625 -17.984375 "/></g></g></g><g fill="#000000" fill-opacity="1"><g transform="translate(49.434423, 92.301331)"><g/></g></g><g fill="#000000" fill-opacity="1"><g transform="translate(58.018356, 92.301331)"><g><path d="M 12.359375 0 L 8.546875 -5.90625 L 4.71875 0 L 0.21875 0 L 6.1875 -8.4375 L 0.5 -16.3125 L 5.0625 -16.3125 L 8.546875 -10.984375 L 12.015625 -16.3125 L 16.625 -16.3125 L 10.9375 -8.484375 L 16.953125 0 Z M 12.359375 0 "/></g></g></g><g fill="#000000" fill-opacity="1"><g transform="translate(75.201302, 92.301331)"><g/></g></g><g fill="#000000" fill-opacity="1"><g transform="translate(83.785235, 92.301331)"><g><path d="M 20.90625 -6.0625 C 20.90625 -4.132812 20.179688 -2.640625 18.734375 -1.578125 C 17.285156 -0.523438 15.273438 0 12.703125 0 L 2.0625 0 L 2.0625 -21.25 L 11.796875 -21.25 C 14.390625 -21.25 16.351562 -20.796875 17.6875 -19.890625 C 19.019531 -18.992188 19.6875 -17.664062 19.6875 -15.90625 C 19.6875 -14.707031 19.347656 -13.691406 18.671875 -12.859375 C 18.003906 -12.023438 16.988281 -11.460938 15.625 -11.171875 C 17.34375 -10.972656 18.648438 -10.429688 19.546875 -9.546875 C 20.453125 -8.671875 20.90625 -7.507812 20.90625 -6.0625 Z M 15.203125 -15.3125 C 15.203125 -16.269531 14.894531 -16.945312 14.28125 -17.34375 C 13.675781 -17.75 12.773438 -17.953125 11.578125 -17.953125 L 6.515625 -17.953125 L 6.515625 -12.6875 L 11.609375 -12.6875 C 12.867188 -12.6875 13.78125 -12.90625 14.34375 -13.34375 C 14.914062 -13.78125 15.203125 -14.4375 15.203125 -15.3125 Z M 16.4375 -6.40625 C 16.4375 -8.394531 15.007812 -9.390625 12.15625 -9.390625 L 6.515625 -9.390625 L 6.515625 -3.296875 L 12.328125 -3.296875 C 13.753906 -3.296875 14.796875 -3.554688 15.453125 -4.078125 C 16.109375 -4.597656 16.4375 -5.375 16.4375 -6.40625 Z M 16.4375 -6.40625 "/></g></g></g><g fill="#000000" fill-opacity="1"><g transform="translate(105.047793, 76.153544)"><g><path d="M 6.578125 0 L 6.578125 -4.734375 C 6.578125 -6.210938 6.078125 -6.953125 5.078125 -6.953125 C 4.546875 -6.953125 4.113281 -6.722656 3.78125 -6.265625 C 3.457031 -5.804688 3.296875 -5.222656 3.296875 -4.515625 L 3.296875 0 L 1.109375 0 L 1.109375 -6.546875 C 1.109375 -6.992188 1.101562 -7.359375 1.09375 -7.640625 C 1.082031 -7.929688 1.066406 -8.191406 1.046875 -8.421875 L 3.140625 -8.421875 C 3.148438 -8.328125 3.164062 -8.066406 3.1875 -7.640625 C 3.21875 -7.210938 3.234375 -6.914062 3.234375 -6.75 L 3.265625 -6.75 C 3.566406 -7.394531 3.941406 -7.863281 4.390625 -8.15625 C 4.835938 -8.445312 5.367188 -8.59375 5.984375 -8.59375 C 6.878906 -8.59375 7.5625 -8.316406 8.03125 -7.765625 C 8.507812 -7.210938 8.75 -6.40625 8.75 -5.34375 L 8.75 0 Z M 6.578125 0 "/></g></g></g><path stroke-linecap="butt" transform="matrix(0.000000000000000047, 0.770867, -0.747581, 0.000000000000000046, 38.755145, 53.114422)" fill="none" stroke-linejoin="miter" d="M -0.00147921 0.0016573 L 14.557003 0.0016573 " stroke="#000000" stroke-width="1" stroke-opacity="1" stroke-miterlimit="4"/><path stroke-linecap="butt" transform="matrix(0.747263, 0, 0, 0.747581, 39.132447, 53.4847)" fill="none" stroke-linejoin="miter" d="M 0.000488979 -0.000434714 L 146.577082 -0.000434714 " stroke="#000000" stroke-width="1" stroke-opacity="1" stroke-miterlimit="4"/><path stroke-linecap="round" transform="matrix(0.747263, 0, 0, 0.747581, 149.036543, 53.4847)" fill="none" stroke-linejoin="round" d="M -2.500558 -1.500064 L -0.498459 -0.000434714 L -2.500558 1.499195 " stroke="#000000" stroke-width="1" stroke-opacity="1" stroke-miterlimit="4"/><path stroke-linecap="butt" transform="matrix(0.000000000000000047, 0.770867, -0.747581, 0.000000000000000046, 93.168977, 99.132787)" fill="none" stroke-linejoin="miter" d="M 0.0000336529 0.00134851 L 14.558516 0.00134851 " stroke="#000000" stroke-width="1" stroke-opacity="1" stroke-miterlimit="4"/><path stroke-linecap="butt" transform="matrix(0.74475, 0, 0, 0.747581, 93.546279, 109.637468)" fill="none" stroke-linejoin="miter" d="M 0.00080027 -0.00100283 L 73.788138 -0.00100283 " stroke="#000000" stroke-width="1" stroke-opacity="1" stroke-miterlimit="4"/><path stroke-linecap="round" transform="matrix(0.74475, 0, 0, 0.747581, 148.872996, 109.637468)" fill="none" stroke-linejoin="round" d="M -2.499197 -1.500632 L -0.500834 -0.00100283 L -2.499197 1.498626 " stroke="#000000" stroke-width="1" stroke-opacity="1" stroke-miterlimit="4"/><path stroke-linecap="butt" transform="matrix(0.000000000000000047, 0.770867, -0.747581, 0.000000000000000046, 110.291362, 79.994635)" fill="none" stroke-linejoin="miter" d="M 0.00189242 -0.0021496 L 14.555307 -0.0021496 " stroke="#000000" stroke-width="1" stroke-opacity="1" stroke-miterlimit="4"/><path stroke-linecap="butt" transform="matrix(0.742124, 0, 0, 0.747581, 110.668664, 90.499317)" fill="none" stroke-linejoin="miter" d="M -0.000936675 0.00091384 L 50.887641 0.00091384 " stroke="#000000" stroke-width="1" stroke-opacity="1" stroke-miterlimit="4"/><path stroke-linecap="round" transform="matrix(0.742124, 0, 0, 0.747581, 148.802867, 90.499317)" fill="none" stroke-linejoin="round" d="M -2.497761 -1.498715 L -0.49759 0.00091384 L -2.497761 1.500543 " stroke="#000000" stroke-width="1" stroke-opacity="1" stroke-miterlimit="4"/><g fill="#000000" fill-opacity="1"><g transform="translate(153.056818, 58.859517)"><g><path d="M 7.375 0 L 6.359375 -2.609375 L 2.296875 -2.609375 L 1.28125 0 L 0.03125 0 L 3.65625 -8.90625 L 5.03125 -8.90625 L 8.609375 0 Z M 4.328125 -8 L 4.28125 -7.828125 C 4.175781 -7.472656 4.019531 -7.023438 3.8125 -6.484375 L 2.671875 -3.546875 L 6 -3.546875 L 4.859375 -6.484375 C 4.742188 -6.773438 4.625 -7.101562 4.5 -7.46875 Z M 4.328125 -8 "/></g></g></g><g fill="#000000" fill-opacity="1"><g transform="translate(161.697148, 58.859517)"><g><path d="M 6.65625 -3.453125 C 6.65625 -1.066406 5.816406 0.125 4.140625 0.125 C 3.617188 0.125 3.1875 0.03125 2.84375 -0.15625 C 2.5 -0.34375 2.222656 -0.644531 2.015625 -1.0625 L 2 -1.0625 C 2 -0.925781 1.988281 -0.722656 1.96875 -0.453125 C 1.957031 -0.191406 1.945312 -0.0390625 1.9375 0 L 0.828125 0 C 0.859375 -0.226562 0.875 -0.695312 0.875 -1.40625 L 0.875 -9.390625 L 2.015625 -9.390625 L 2.015625 -6.703125 C 2.015625 -6.429688 2.003906 -6.113281 1.984375 -5.75 L 2.015625 -5.75 C 2.222656 -6.1875 2.5 -6.5 2.84375 -6.6875 C 3.195312 -6.875 3.628906 -6.96875 4.140625 -6.96875 C 5.003906 -6.96875 5.640625 -6.675781 6.046875 -6.09375 C 6.453125 -5.507812 6.65625 -4.628906 6.65625 -3.453125 Z M 5.46875 -3.421875 C 5.46875 -4.367188 5.335938 -5.050781 5.078125 -5.46875 C 4.828125 -5.882812 4.421875 -6.09375 3.859375 -6.09375 C 3.210938 -6.09375 2.742188 -5.875 2.453125 -5.4375 C 2.160156 -5 2.015625 -4.300781 2.015625 -3.34375 C 2.015625 -2.445312 2.15625 -1.785156 2.4375 -1.359375 C 2.726562 -0.929688 3.195312 -0.71875 3.84375 -0.71875 C 4.414062 -0.71875 4.828125 -0.925781 5.078125 -1.34375 C 5.335938 -1.769531 5.46875 -2.460938 5.46875 -3.421875 Z M 5.46875 -3.421875 "/></g></g></g><g fill="#000000" fill-opacity="1"><g transform="translate(168.901646, 58.859517)"><g><path d="M 6.015625 -1.890625 C 6.015625 -1.242188 5.769531 -0.742188 5.28125 -0.390625 C 4.789062 -0.046875 4.109375 0.125 3.234375 0.125 C 2.378906 0.125 1.71875 -0.015625 1.25 -0.296875 C 0.789062 -0.578125 0.492188 -1.015625 0.359375 -1.609375 L 1.359375 -1.796875 C 1.460938 -1.429688 1.664062 -1.160156 1.96875 -0.984375 C 2.269531 -0.816406 2.691406 -0.734375 3.234375 -0.734375 C 3.804688 -0.734375 4.226562 -0.820312 4.5 -1 C 4.769531 -1.175781 4.90625 -1.441406 4.90625 -1.796875 C 4.90625 -2.066406 4.8125 -2.285156 4.625 -2.453125 C 4.4375 -2.628906 4.132812 -2.769531 3.71875 -2.875 L 2.90625 -3.09375 C 2.25 -3.257812 1.78125 -3.421875 1.5 -3.578125 C 1.226562 -3.742188 1.015625 -3.941406 0.859375 -4.171875 C 0.703125 -4.410156 0.625 -4.695312 0.625 -5.03125 C 0.625 -5.65625 0.847656 -6.128906 1.296875 -6.453125 C 1.742188 -6.785156 2.394531 -6.953125 3.25 -6.953125 C 4 -6.953125 4.597656 -6.816406 5.046875 -6.546875 C 5.492188 -6.285156 5.773438 -5.863281 5.890625 -5.28125 L 4.859375 -5.140625 C 4.796875 -5.453125 4.625 -5.6875 4.34375 -5.84375 C 4.070312 -6.007812 3.707031 -6.09375 3.25 -6.09375 C 2.726562 -6.09375 2.34375 -6.015625 2.09375 -5.859375 C 1.851562 -5.703125 1.734375 -5.460938 1.734375 -5.140625 C 1.734375 -4.953125 1.785156 -4.796875 1.890625 -4.671875 C 1.992188 -4.546875 2.144531 -4.4375 2.34375 -4.34375 C 2.539062 -4.257812 2.957031 -4.140625 3.59375 -3.984375 C 4.195312 -3.828125 4.628906 -3.679688 4.890625 -3.546875 C 5.160156 -3.421875 5.367188 -3.28125 5.515625 -3.125 C 5.671875 -2.96875 5.789062 -2.785156 5.875 -2.578125 C 5.96875 -2.378906 6.015625 -2.148438 6.015625 -1.890625 Z M 6.015625 -1.890625 "/></g></g></g><g fill="#000000" fill-opacity="1"><g transform="translate(175.378731, 58.859517)"><g><path d="M 6.65625 -3.421875 C 6.65625 -2.222656 6.390625 -1.332031 5.859375 -0.75 C 5.335938 -0.164062 4.578125 0.125 3.578125 0.125 C 2.578125 0.125 1.820312 -0.175781 1.3125 -0.78125 C 0.800781 -1.394531 0.546875 -2.273438 0.546875 -3.421875 C 0.546875 -5.785156 1.566406 -6.96875 3.609375 -6.96875 C 4.660156 -6.96875 5.429688 -6.679688 5.921875 -6.109375 C 6.410156 -5.535156 6.65625 -4.640625 6.65625 -3.421875 Z M 5.46875 -3.421875 C 5.46875 -4.367188 5.328125 -5.054688 5.046875 -5.484375 C 4.765625 -5.910156 4.289062 -6.125 3.625 -6.125 C 2.957031 -6.125 2.472656 -5.90625 2.171875 -5.46875 C 1.878906 -5.03125 1.734375 -4.347656 1.734375 -3.421875 C 1.734375 -2.523438 1.878906 -1.847656 2.171875 -1.390625 C 2.472656 -0.941406 2.9375 -0.71875 3.5625 -0.71875 C 4.238281 -0.71875 4.722656 -0.9375 5.015625 -1.375 C 5.316406 -1.8125 5.46875 -2.492188 5.46875 -3.421875 Z M 5.46875 -3.421875 "/></g></g></g><g fill="#000000" fill-opacity="1"><g transform="translate(182.583229, 58.859517)"><g><path d="M 0.875 0 L 0.875 -9.390625 L 2.015625 -9.390625 L 2.015625 0 Z M 0.875 0 "/></g></g></g><g fill="#000000" fill-opacity="1"><g transform="translate(185.461236, 58.859517)"><g><path d="M 1.984375 -6.84375 L 1.984375 -2.5 C 1.984375 -2.050781 2.023438 -1.703125 2.109375 -1.453125 C 2.203125 -1.203125 2.34375 -1.019531 2.53125 -0.90625 C 2.726562 -0.800781 3.015625 -0.75 3.390625 -0.75 C 3.941406 -0.75 4.375 -0.9375 4.6875 -1.3125 C 5.007812 -1.6875 5.171875 -2.207031 5.171875 -2.875 L 5.171875 -6.84375 L 6.3125 -6.84375 L 6.3125 -1.46875 C 6.3125 -0.664062 6.320312 -0.175781 6.34375 0 L 5.265625 0 C 5.265625 -0.0195312 5.257812 -0.078125 5.25 -0.171875 C 5.25 -0.265625 5.242188 -0.367188 5.234375 -0.484375 C 5.234375 -0.609375 5.226562 -0.835938 5.21875 -1.171875 L 5.203125 -1.171875 C 4.941406 -0.703125 4.640625 -0.367188 4.296875 -0.171875 C 3.953125 0.0234375 3.523438 0.125 3.015625 0.125 C 2.265625 0.125 1.710938 -0.0625 1.359375 -0.4375 C 1.015625 -0.8125 0.84375 -1.425781 0.84375 -2.28125 L 0.84375 -6.84375 Z M 1.984375 -6.84375 "/></g></g></g><g fill="#000000" fill-opacity="1"><g transform="translate(192.665734, 58.859517)"><g><path d="M 3.5 -0.046875 C 3.125 0.046875 2.742188 0.09375 2.359375 0.09375 C 1.441406 0.09375 0.984375 -0.421875 0.984375 -1.453125 L 0.984375 -6.015625 L 0.203125 -6.015625 L 0.203125 -6.84375 L 1.03125 -6.84375 L 1.359375 -8.375 L 2.125 -8.375 L 2.125 -6.84375 L 3.390625 -6.84375 L 3.390625 -6.015625 L 2.125 -6.015625 L 2.125 -1.6875 C 2.125 -1.363281 2.175781 -1.132812 2.28125 -1 C 2.394531 -0.863281 2.582031 -0.796875 2.84375 -0.796875 C 3 -0.796875 3.21875 -0.828125 3.5 -0.890625 Z M 3.5 -0.046875 "/></g></g></g><g fill="#000000" fill-opacity="1"><g transform="translate(196.264823, 58.859517)"><g><path d="M 1.75 -3.1875 C 1.75 -2.394531 1.910156 -1.785156 2.234375 -1.359375 C 2.554688 -0.941406 3.03125 -0.734375 3.65625 -0.734375 C 4.144531 -0.734375 4.535156 -0.832031 4.828125 -1.03125 C 5.128906 -1.226562 5.335938 -1.476562 5.453125 -1.78125 L 6.4375 -1.5 C 6.03125 -0.414062 5.101562 0.125 3.65625 0.125 C 2.644531 0.125 1.875 -0.175781 1.34375 -0.78125 C 0.8125 -1.382812 0.546875 -2.28125 0.546875 -3.46875 C 0.546875 -4.59375 0.8125 -5.457031 1.34375 -6.0625 C 1.875 -6.664062 2.628906 -6.96875 3.609375 -6.96875 C 5.617188 -6.96875 6.625 -5.753906 6.625 -3.328125 L 6.625 -3.1875 Z M 5.453125 -4.046875 C 5.390625 -4.773438 5.207031 -5.300781 4.90625 -5.625 C 4.601562 -5.957031 4.164062 -6.125 3.59375 -6.125 C 3.039062 -6.125 2.601562 -5.9375 2.28125 -5.5625 C 1.957031 -5.195312 1.785156 -4.691406 1.765625 -4.046875 Z M 5.453125 -4.046875 "/></g></g></g><g fill="#000000" fill-opacity="1"><g transform="translate(203.46932, 58.859517)"><g/></g></g><g fill="#000000" fill-opacity="1"><g transform="translate(207.06841, 58.859517)"><g><path d="M 8.734375 -4.546875 C 8.734375 -3.628906 8.550781 -2.820312 8.1875 -2.125 C 7.832031 -1.4375 7.328125 -0.910156 6.671875 -0.546875 C 6.015625 -0.179688 5.253906 0 4.390625 0 L 1.0625 0 L 1.0625 -8.90625 L 4.015625 -8.90625 C 5.523438 -8.90625 6.6875 -8.523438 7.5 -7.765625 C 8.320312 -7.015625 8.734375 -5.941406 8.734375 -4.546875 Z M 7.515625 -4.546875 C 7.515625 -5.648438 7.210938 -6.488281 6.609375 -7.0625 C 6.003906 -7.644531 5.128906 -7.9375 3.984375 -7.9375 L 2.265625 -7.9375 L 2.265625 -0.96875 L 4.25 -0.96875 C 4.90625 -0.96875 5.476562 -1.109375 5.96875 -1.390625 C 6.46875 -1.679688 6.847656 -2.097656 7.109375 -2.640625 C 7.378906 -3.179688 7.515625 -3.816406 7.515625 -4.546875 Z M 7.515625 -4.546875 "/></g></g></g><g fill="#000000" fill-opacity="1"><g transform="translate(216.423502, 58.859517)"><g><path d="M 0.859375 -8.296875 L 0.859375 -9.390625 L 2 -9.390625 L 2 -8.296875 Z M 0.859375 0 L 0.859375 -6.84375 L 2 -6.84375 L 2 0 Z M 0.859375 0 "/></g></g></g><g fill="#000000" fill-opacity="1"><g transform="translate(219.301509, 58.859517)"><g><path d="M 3.46875 2.6875 C 2.71875 2.6875 2.117188 2.539062 1.671875 2.25 C 1.234375 1.957031 0.953125 1.539062 0.828125 1 L 1.96875 0.828125 C 2.050781 1.148438 2.21875 1.394531 2.46875 1.5625 C 2.726562 1.738281 3.070312 1.828125 3.5 1.828125 C 4.632812 1.828125 5.203125 1.160156 5.203125 -0.171875 L 5.203125 -1.265625 L 5.1875 -1.265625 C 4.96875 -0.828125 4.671875 -0.5 4.296875 -0.28125 C 3.921875 -0.0625 3.484375 0.046875 2.984375 0.046875 C 2.148438 0.046875 1.535156 -0.226562 1.140625 -0.78125 C 0.742188 -1.34375 0.546875 -2.21875 0.546875 -3.40625 C 0.546875 -4.613281 0.753906 -5.503906 1.171875 -6.078125 C 1.597656 -6.660156 2.242188 -6.953125 3.109375 -6.953125 C 3.597656 -6.953125 4.019531 -6.835938 4.375 -6.609375 C 4.726562 -6.390625 5.003906 -6.078125 5.203125 -5.671875 L 5.21875 -5.671875 C 5.21875 -5.796875 5.222656 -6.015625 5.234375 -6.328125 C 5.253906 -6.640625 5.269531 -6.8125 5.28125 -6.84375 L 6.375 -6.84375 C 6.34375 -6.613281 6.328125 -6.140625 6.328125 -5.421875 L 6.328125 -0.203125 C 6.328125 1.722656 5.375 2.6875 3.46875 2.6875 Z M 5.203125 -3.421875 C 5.203125 -3.972656 5.125 -4.453125 4.96875 -4.859375 C 4.820312 -5.265625 4.609375 -5.570312 4.328125 -5.78125 C 4.054688 -6 3.742188 -6.109375 3.390625 -6.109375 C 2.804688 -6.109375 2.378906 -5.894531 2.109375 -5.46875 C 1.847656 -5.050781 1.71875 -4.367188 1.71875 -3.421875 C 1.71875 -2.484375 1.84375 -1.8125 2.09375 -1.40625 C 2.34375 -1 2.769531 -0.796875 3.375 -0.796875 C 3.726562 -0.796875 4.046875 -0.898438 4.328125 -1.109375 C 4.609375 -1.316406 4.820312 -1.617188 4.96875 -2.015625 C 5.125 -2.410156 5.203125 -2.878906 5.203125 -3.421875 Z M 5.203125 -3.421875 "/></g></g></g><g fill="#000000" fill-opacity="1"><g transform="translate(226.506007, 58.859517)"><g><path d="M 0.859375 -8.296875 L 0.859375 -9.390625 L 2 -9.390625 L 2 -8.296875 Z M 0.859375 0 L 0.859375 -6.84375 L 2 -6.84375 L 2 0 Z M 0.859375 0 "/></g></g></g><g fill="#000000" fill-opacity="1"><g transform="translate(229.384014, 58.859517)"><g><path d="M 3.5 -0.046875 C 3.125 0.046875 2.742188 0.09375 2.359375 0.09375 C 1.441406 0.09375 0.984375 -0.421875 0.984375 -1.453125 L 0.984375 -6.015625 L 0.203125 -6.015625 L 0.203125 -6.84375 L 1.03125 -6.84375 L 1.359375 -8.375 L 2.125 -8.375 L 2.125 -6.84375 L 3.390625 -6.84375 L 3.390625 -6.015625 L 2.125 -6.015625 L 2.125 -1.6875 C 2.125 -1.363281 2.175781 -1.132812 2.28125 -1 C 2.394531 -0.863281 2.582031 -0.796875 2.84375 -0.796875 C 3 -0.796875 3.21875 -0.828125 3.5 -0.890625 Z M 3.5 -0.046875 "/></g></g></g><g fill="#000000" fill-opacity="1"><g transform="translate(151.608383, 94.611017)"><g><path d="M 7.953125 -6.234375 C 7.953125 -5.390625 7.675781 -4.71875 7.125 -4.21875 C 6.582031 -3.71875 5.835938 -3.46875 4.890625 -3.46875 L 2.265625 -3.46875 L 2.265625 0 L 1.0625 0 L 1.0625 -8.90625 L 4.8125 -8.90625 C 5.8125 -8.90625 6.582031 -8.671875 7.125 -8.203125 C 7.675781 -7.734375 7.953125 -7.078125 7.953125 -6.234375 Z M 6.75 -6.21875 C 6.75 -7.363281 6.054688 -7.9375 4.671875 -7.9375 L 2.265625 -7.9375 L 2.265625 -4.421875 L 4.71875 -4.421875 C 6.070312 -4.421875 6.75 -5.019531 6.75 -6.21875 Z M 6.75 -6.21875 "/></g></g></g><g fill="#000000" fill-opacity="1"><g transform="translate(160.248713, 94.611017)"><g><path d="M 6.65625 -3.421875 C 6.65625 -2.222656 6.390625 -1.332031 5.859375 -0.75 C 5.335938 -0.164062 4.578125 0.125 3.578125 0.125 C 2.578125 0.125 1.820312 -0.175781 1.3125 -0.78125 C 0.800781 -1.394531 0.546875 -2.273438 0.546875 -3.421875 C 0.546875 -5.785156 1.566406 -6.96875 3.609375 -6.96875 C 4.660156 -6.96875 5.429688 -6.679688 5.921875 -6.109375 C 6.410156 -5.535156 6.65625 -4.640625 6.65625 -3.421875 Z M 5.46875 -3.421875 C 5.46875 -4.367188 5.328125 -5.054688 5.046875 -5.484375 C 4.765625 -5.910156 4.289062 -6.125 3.625 -6.125 C 2.957031 -6.125 2.472656 -5.90625 2.171875 -5.46875 C 1.878906 -5.03125 1.734375 -4.347656 1.734375 -3.421875 C 1.734375 -2.523438 1.878906 -1.847656 2.171875 -1.390625 C 2.472656 -0.941406 2.9375 -0.71875 3.5625 -0.71875 C 4.238281 -0.71875 4.722656 -0.9375 5.015625 -1.375 C 5.316406 -1.8125 5.46875 -2.492188 5.46875 -3.421875 Z M 5.46875 -3.421875 "/></g></g></g><g fill="#000000" fill-opacity="1"><g transform="translate(167.45321, 94.611017)"><g><path d="M 6.015625 -1.890625 C 6.015625 -1.242188 5.769531 -0.742188 5.28125 -0.390625 C 4.789062 -0.046875 4.109375 0.125 3.234375 0.125 C 2.378906 0.125 1.71875 -0.015625 1.25 -0.296875 C 0.789062 -0.578125 0.492188 -1.015625 0.359375 -1.609375 L 1.359375 -1.796875 C 1.460938 -1.429688 1.664062 -1.160156 1.96875 -0.984375 C 2.269531 -0.816406 2.691406 -0.734375 3.234375 -0.734375 C 3.804688 -0.734375 4.226562 -0.820312 4.5 -1 C 4.769531 -1.175781 4.90625 -1.441406 4.90625 -1.796875 C 4.90625 -2.066406 4.8125 -2.285156 4.625 -2.453125 C 4.4375 -2.628906 4.132812 -2.769531 3.71875 -2.875 L 2.90625 -3.09375 C 2.25 -3.257812 1.78125 -3.421875 1.5 -3.578125 C 1.226562 -3.742188 1.015625 -3.941406 0.859375 -4.171875 C 0.703125 -4.410156 0.625 -4.695312 0.625 -5.03125 C 0.625 -5.65625 0.847656 -6.128906 1.296875 -6.453125 C 1.742188 -6.785156 2.394531 -6.953125 3.25 -6.953125 C 4 -6.953125 4.597656 -6.816406 5.046875 -6.546875 C 5.492188 -6.285156 5.773438 -5.863281 5.890625 -5.28125 L 4.859375 -5.140625 C 4.796875 -5.453125 4.625 -5.6875 4.34375 -5.84375 C 4.070312 -6.007812 3.707031 -6.09375 3.25 -6.09375 C 2.726562 -6.09375 2.34375 -6.015625 2.09375 -5.859375 C 1.851562 -5.703125 1.734375 -5.460938 1.734375 -5.140625 C 1.734375 -4.953125 1.785156 -4.796875 1.890625 -4.671875 C 1.992188 -4.546875 2.144531 -4.4375 2.34375 -4.34375 C 2.539062 -4.257812 2.957031 -4.140625 3.59375 -3.984375 C 4.195312 -3.828125 4.628906 -3.679688 4.890625 -3.546875 C 5.160156 -3.421875 5.367188 -3.28125 5.515625 -3.125 C 5.671875 -2.96875 5.789062 -2.785156 5.875 -2.578125 C 5.96875 -2.378906 6.015625 -2.148438 6.015625 -1.890625 Z M 6.015625 -1.890625 "/></g></g></g><g fill="#000000" fill-opacity="1"><g transform="translate(173.930295, 94.611017)"><g><path d="M 0.859375 -8.296875 L 0.859375 -9.390625 L 2 -9.390625 L 2 -8.296875 Z M 0.859375 0 L 0.859375 -6.84375 L 2 -6.84375 L 2 0 Z M 0.859375 0 "/></g></g></g><g fill="#000000" fill-opacity="1"><g transform="translate(176.808303, 94.611017)"><g><path d="M 3.5 -0.046875 C 3.125 0.046875 2.742188 0.09375 2.359375 0.09375 C 1.441406 0.09375 0.984375 -0.421875 0.984375 -1.453125 L 0.984375 -6.015625 L 0.203125 -6.015625 L 0.203125 -6.84375 L 1.03125 -6.84375 L 1.359375 -8.375 L 2.125 -8.375 L 2.125 -6.84375 L 3.390625 -6.84375 L 3.390625 -6.015625 L 2.125 -6.015625 L 2.125 -1.6875 C 2.125 -1.363281 2.175781 -1.132812 2.28125 -1 C 2.394531 -0.863281 2.582031 -0.796875 2.84375 -0.796875 C 3 -0.796875 3.21875 -0.828125 3.5 -0.890625 Z M 3.5 -0.046875 "/></g></g></g><g fill="#000000" fill-opacity="1"><g transform="translate(180.407392, 94.611017)"><g><path d="M 0.859375 -8.296875 L 0.859375 -9.390625 L 2 -9.390625 L 2 -8.296875 Z M 0.859375 0 L 0.859375 -6.84375 L 2 -6.84375 L 2 0 Z M 0.859375 0 "/></g></g></g><g fill="#000000" fill-opacity="1"><g transform="translate(183.285399, 94.611017)"><g><path d="M 6.65625 -3.421875 C 6.65625 -2.222656 6.390625 -1.332031 5.859375 -0.75 C 5.335938 -0.164062 4.578125 0.125 3.578125 0.125 C 2.578125 0.125 1.820312 -0.175781 1.3125 -0.78125 C 0.800781 -1.394531 0.546875 -2.273438 0.546875 -3.421875 C 0.546875 -5.785156 1.566406 -6.96875 3.609375 -6.96875 C 4.660156 -6.96875 5.429688 -6.679688 5.921875 -6.109375 C 6.410156 -5.535156 6.65625 -4.640625 6.65625 -3.421875 Z M 5.46875 -3.421875 C 5.46875 -4.367188 5.328125 -5.054688 5.046875 -5.484375 C 4.765625 -5.910156 4.289062 -6.125 3.625 -6.125 C 2.957031 -6.125 2.472656 -5.90625 2.171875 -5.46875 C 1.878906 -5.03125 1.734375 -4.347656 1.734375 -3.421875 C 1.734375 -2.523438 1.878906 -1.847656 2.171875 -1.390625 C 2.472656 -0.941406 2.9375 -0.71875 3.5625 -0.71875 C 4.238281 -0.71875 4.722656 -0.9375 5.015625 -1.375 C 5.316406 -1.8125 5.46875 -2.492188 5.46875 -3.421875 Z M 5.46875 -3.421875 "/></g></g></g><g fill="#000000" fill-opacity="1"><g transform="translate(190.489897, 94.611017)"><g><path d="M 5.21875 0 L 5.21875 -4.34375 C 5.21875 -4.789062 5.171875 -5.140625 5.078125 -5.390625 C 4.992188 -5.640625 4.851562 -5.816406 4.65625 -5.921875 C 4.46875 -6.035156 4.1875 -6.09375 3.8125 -6.09375 C 3.257812 -6.09375 2.820312 -5.90625 2.5 -5.53125 C 2.1875 -5.15625 2.03125 -4.632812 2.03125 -3.96875 L 2.03125 0 L 0.890625 0 L 0.890625 -5.375 C 0.890625 -6.175781 0.878906 -6.664062 0.859375 -6.84375 L 1.9375 -6.84375 C 1.9375 -6.820312 1.9375 -6.765625 1.9375 -6.671875 C 1.945312 -6.578125 1.953125 -6.46875 1.953125 -6.34375 C 1.960938 -6.226562 1.972656 -6.003906 1.984375 -5.671875 L 2 -5.671875 C 2.257812 -6.140625 2.5625 -6.472656 2.90625 -6.671875 C 3.25 -6.867188 3.675781 -6.96875 4.1875 -6.96875 C 4.9375 -6.96875 5.484375 -6.78125 5.828125 -6.40625 C 6.179688 -6.03125 6.359375 -5.414062 6.359375 -4.5625 L 6.359375 0 Z M 5.21875 0 "/></g></g></g><g fill="#000000" fill-opacity="1"><g transform="translate(197.694395, 94.611017)"><g/></g></g><g fill="#000000" fill-opacity="1"><g transform="translate(201.293484, 94.611017)"><g><path d="M 4.953125 0 L 3.6875 0 L 0.0625 -8.90625 L 1.328125 -8.90625 L 3.796875 -2.640625 L 4.328125 -1.0625 L 4.859375 -2.640625 L 7.3125 -8.90625 L 8.578125 -8.90625 Z M 4.953125 0 "/></g></g></g><g fill="#000000" fill-opacity="1"><g transform="translate(209.933814, 94.611017)"><g><path d="M 2.625 0.125 C 1.9375 0.125 1.414062 -0.0546875 1.0625 -0.421875 C 0.71875 -0.785156 0.546875 -1.28125 0.546875 -1.90625 C 0.546875 -2.613281 0.78125 -3.15625 1.25 -3.53125 C 1.71875 -3.914062 2.46875 -4.125 3.5 -4.15625 L 5.046875 -4.171875 L 5.046875 -4.546875 C 5.046875 -5.097656 4.925781 -5.492188 4.6875 -5.734375 C 4.445312 -5.984375 4.078125 -6.109375 3.578125 -6.109375 C 3.066406 -6.109375 2.691406 -6.019531 2.453125 -5.84375 C 2.222656 -5.664062 2.085938 -5.390625 2.046875 -5.015625 L 0.859375 -5.125 C 1.046875 -6.351562 1.957031 -6.96875 3.59375 -6.96875 C 4.457031 -6.96875 5.101562 -6.769531 5.53125 -6.375 C 5.96875 -5.976562 6.1875 -5.410156 6.1875 -4.671875 L 6.1875 -1.71875 C 6.1875 -1.382812 6.226562 -1.128906 6.3125 -0.953125 C 6.40625 -0.785156 6.578125 -0.703125 6.828125 -0.703125 C 6.941406 -0.703125 7.066406 -0.71875 7.203125 -0.75 L 7.203125 -0.03125 C 6.921875 0.03125 6.628906 0.0625 6.328125 0.0625 C 5.898438 0.0625 5.585938 -0.046875 5.390625 -0.265625 C 5.203125 -0.484375 5.097656 -0.832031 5.078125 -1.3125 L 5.046875 -1.3125 C 4.753906 -0.789062 4.414062 -0.421875 4.03125 -0.203125 C 3.644531 0.015625 3.175781 0.125 2.625 0.125 Z M 2.875 -0.734375 C 3.289062 -0.734375 3.660156 -0.828125 3.984375 -1.015625 C 4.316406 -1.203125 4.578125 -1.460938 4.765625 -1.796875 C 4.953125 -2.128906 5.046875 -2.46875 5.046875 -2.8125 L 5.046875 -3.375 L 3.796875 -3.359375 C 3.253906 -3.347656 2.84375 -3.289062 2.5625 -3.1875 C 2.289062 -3.082031 2.082031 -2.925781 1.9375 -2.71875 C 1.789062 -2.507812 1.71875 -2.234375 1.71875 -1.890625 C 1.71875 -1.515625 1.816406 -1.226562 2.015625 -1.03125 C 2.222656 -0.832031 2.507812 -0.734375 2.875 -0.734375 Z M 2.875 -0.734375 "/></g></g></g><g fill="#000000" fill-opacity="1"><g transform="translate(217.138311, 94.611017)"><g><path d="M 0.875 0 L 0.875 -9.390625 L 2.015625 -9.390625 L 2.015625 0 Z M 0.875 0 "/></g></g></g><g fill="#000000" fill-opacity="1"><g transform="translate(220.016319, 94.611017)"><g><path d="M 1.984375 -6.84375 L 1.984375 -2.5 C 1.984375 -2.050781 2.023438 -1.703125 2.109375 -1.453125 C 2.203125 -1.203125 2.34375 -1.019531 2.53125 -0.90625 C 2.726562 -0.800781 3.015625 -0.75 3.390625 -0.75 C 3.941406 -0.75 4.375 -0.9375 4.6875 -1.3125 C 5.007812 -1.6875 5.171875 -2.207031 5.171875 -2.875 L 5.171875 -6.84375 L 6.3125 -6.84375 L 6.3125 -1.46875 C 6.3125 -0.664062 6.320312 -0.175781 6.34375 0 L 5.265625 0 C 5.265625 -0.0195312 5.257812 -0.078125 5.25 -0.171875 C 5.25 -0.265625 5.242188 -0.367188 5.234375 -0.484375 C 5.234375 -0.609375 5.226562 -0.835938 5.21875 -1.171875 L 5.203125 -1.171875 C 4.941406 -0.703125 4.640625 -0.367188 4.296875 -0.171875 C 3.953125 0.0234375 3.523438 0.125 3.015625 0.125 C 2.265625 0.125 1.710938 -0.0625 1.359375 -0.4375 C 1.015625 -0.8125 0.84375 -1.425781 0.84375 -2.28125 L 0.84375 -6.84375 Z M 1.984375 -6.84375 "/></g></g></g><g fill="#000000" fill-opacity="1"><g transform="translate(227.220816, 94.611017)"><g><path d="M 1.75 -3.1875 C 1.75 -2.394531 1.910156 -1.785156 2.234375 -1.359375 C 2.554688 -0.941406 3.03125 -0.734375 3.65625 -0.734375 C 4.144531 -0.734375 4.535156 -0.832031 4.828125 -1.03125 C 5.128906 -1.226562 5.335938 -1.476562 5.453125 -1.78125 L 6.4375 -1.5 C 6.03125 -0.414062 5.101562 0.125 3.65625 0.125 C 2.644531 0.125 1.875 -0.175781 1.34375 -0.78125 C 0.8125 -1.382812 0.546875 -2.28125 0.546875 -3.46875 C 0.546875 -4.59375 0.8125 -5.457031 1.34375 -6.0625 C 1.875 -6.664062 2.628906 -6.96875 3.609375 -6.96875 C 5.617188 -6.96875 6.625 -5.753906 6.625 -3.328125 L 6.625 -3.1875 Z M 5.453125 -4.046875 C 5.390625 -4.773438 5.207031 -5.300781 4.90625 -5.625 C 4.601562 -5.957031 4.164062 -6.125 3.59375 -6.125 C 3.039062 -6.125 2.601562 -5.9375 2.28125 -5.5625 C 1.957031 -5.195312 1.785156 -4.691406 1.765625 -4.046875 Z M 5.453125 -4.046875 "/></g></g></g><g fill="#000000" fill-opacity="1"><g transform="translate(157.355407, 114.496757)"><g><path d="M 7.953125 -2.515625 C 7.953125 -1.722656 7.660156 -1.101562 7.078125 -0.65625 C 6.503906 -0.21875 5.707031 0 4.6875 0 L 1.0625 0 L 1.0625 -8.90625 L 4.296875 -8.90625 C 6.390625 -8.90625 7.4375 -8.1875 7.4375 -6.75 C 7.4375 -6.21875 7.285156 -5.769531 6.984375 -5.40625 C 6.691406 -5.050781 6.28125 -4.816406 5.75 -4.703125 C 6.457031 -4.617188 7 -4.378906 7.375 -3.984375 C 7.757812 -3.597656 7.953125 -3.109375 7.953125 -2.515625 Z M 6.21875 -6.609375 C 6.21875 -7.085938 6.050781 -7.425781 5.71875 -7.625 C 5.394531 -7.832031 4.921875 -7.9375 4.296875 -7.9375 L 2.265625 -7.9375 L 2.265625 -5.125 L 4.296875 -5.125 C 4.941406 -5.125 5.421875 -5.242188 5.734375 -5.484375 C 6.054688 -5.722656 6.21875 -6.097656 6.21875 -6.609375 Z M 6.734375 -2.609375 C 6.734375 -3.660156 5.992188 -4.1875 4.515625 -4.1875 L 2.265625 -4.1875 L 2.265625 -0.96875 L 4.609375 -0.96875 C 5.347656 -0.96875 5.882812 -1.101562 6.21875 -1.375 C 6.5625 -1.65625 6.734375 -2.066406 6.734375 -2.609375 Z M 6.734375 -2.609375 "/></g></g></g><g fill="#000000" fill-opacity="1"><g transform="translate(165.995737, 114.496757)"><g><path d="M 2.625 0.125 C 1.9375 0.125 1.414062 -0.0546875 1.0625 -0.421875 C 0.71875 -0.785156 0.546875 -1.28125 0.546875 -1.90625 C 0.546875 -2.613281 0.78125 -3.15625 1.25 -3.53125 C 1.71875 -3.914062 2.46875 -4.125 3.5 -4.15625 L 5.046875 -4.171875 L 5.046875 -4.546875 C 5.046875 -5.097656 4.925781 -5.492188 4.6875 -5.734375 C 4.445312 -5.984375 4.078125 -6.109375 3.578125 -6.109375 C 3.066406 -6.109375 2.691406 -6.019531 2.453125 -5.84375 C 2.222656 -5.664062 2.085938 -5.390625 2.046875 -5.015625 L 0.859375 -5.125 C 1.046875 -6.351562 1.957031 -6.96875 3.59375 -6.96875 C 4.457031 -6.96875 5.101562 -6.769531 5.53125 -6.375 C 5.96875 -5.976562 6.1875 -5.410156 6.1875 -4.671875 L 6.1875 -1.71875 C 6.1875 -1.382812 6.226562 -1.128906 6.3125 -0.953125 C 6.40625 -0.785156 6.578125 -0.703125 6.828125 -0.703125 C 6.941406 -0.703125 7.066406 -0.71875 7.203125 -0.75 L 7.203125 -0.03125 C 6.921875 0.03125 6.628906 0.0625 6.328125 0.0625 C 5.898438 0.0625 5.585938 -0.046875 5.390625 -0.265625 C 5.203125 -0.484375 5.097656 -0.832031 5.078125 -1.3125 L 5.046875 -1.3125 C 4.753906 -0.789062 4.414062 -0.421875 4.03125 -0.203125 C 3.644531 0.015625 3.175781 0.125 2.625 0.125 Z M 2.875 -0.734375 C 3.289062 -0.734375 3.660156 -0.828125 3.984375 -1.015625 C 4.316406 -1.203125 4.578125 -1.460938 4.765625 -1.796875 C 4.953125 -2.128906 5.046875 -2.46875 5.046875 -2.8125 L 5.046875 -3.375 L 3.796875 -3.359375 C 3.253906 -3.347656 2.84375 -3.289062 2.5625 -3.1875 C 2.289062 -3.082031 2.082031 -2.925781 1.9375 -2.71875 C 1.789062 -2.507812 1.71875 -2.234375 1.71875 -1.890625 C 1.71875 -1.515625 1.816406 -1.226562 2.015625 -1.03125 C 2.222656 -0.832031 2.507812 -0.734375 2.875 -0.734375 Z M 2.875 -0.734375 "/></g></g></g><g fill="#000000" fill-opacity="1"><g transform="translate(173.200234, 114.496757)"><g><path d="M 6.015625 -1.890625 C 6.015625 -1.242188 5.769531 -0.742188 5.28125 -0.390625 C 4.789062 -0.046875 4.109375 0.125 3.234375 0.125 C 2.378906 0.125 1.71875 -0.015625 1.25 -0.296875 C 0.789062 -0.578125 0.492188 -1.015625 0.359375 -1.609375 L 1.359375 -1.796875 C 1.460938 -1.429688 1.664062 -1.160156 1.96875 -0.984375 C 2.269531 -0.816406 2.691406 -0.734375 3.234375 -0.734375 C 3.804688 -0.734375 4.226562 -0.820312 4.5 -1 C 4.769531 -1.175781 4.90625 -1.441406 4.90625 -1.796875 C 4.90625 -2.066406 4.8125 -2.285156 4.625 -2.453125 C 4.4375 -2.628906 4.132812 -2.769531 3.71875 -2.875 L 2.90625 -3.09375 C 2.25 -3.257812 1.78125 -3.421875 1.5 -3.578125 C 1.226562 -3.742188 1.015625 -3.941406 0.859375 -4.171875 C 0.703125 -4.410156 0.625 -4.695312 0.625 -5.03125 C 0.625 -5.65625 0.847656 -6.128906 1.296875 -6.453125 C 1.742188 -6.785156 2.394531 -6.953125 3.25 -6.953125 C 4 -6.953125 4.597656 -6.816406 5.046875 -6.546875 C 5.492188 -6.285156 5.773438 -5.863281 5.890625 -5.28125 L 4.859375 -5.140625 C 4.796875 -5.453125 4.625 -5.6875 4.34375 -5.84375 C 4.070312 -6.007812 3.707031 -6.09375 3.25 -6.09375 C 2.726562 -6.09375 2.34375 -6.015625 2.09375 -5.859375 C 1.851562 -5.703125 1.734375 -5.460938 1.734375 -5.140625 C 1.734375 -4.953125 1.785156 -4.796875 1.890625 -4.671875 C 1.992188 -4.546875 2.144531 -4.4375 2.34375 -4.34375 C 2.539062 -4.257812 2.957031 -4.140625 3.59375 -3.984375 C 4.195312 -3.828125 4.628906 -3.679688 4.890625 -3.546875 C 5.160156 -3.421875 5.367188 -3.28125 5.515625 -3.125 C 5.671875 -2.96875 5.789062 -2.785156 5.875 -2.578125 C 5.96875 -2.378906 6.015625 -2.148438 6.015625 -1.890625 Z M 6.015625 -1.890625 "/></g></g></g><g fill="#000000" fill-opacity="1"><g transform="translate(179.677319, 114.496757)"><g><path d="M 1.75 -3.1875 C 1.75 -2.394531 1.910156 -1.785156 2.234375 -1.359375 C 2.554688 -0.941406 3.03125 -0.734375 3.65625 -0.734375 C 4.144531 -0.734375 4.535156 -0.832031 4.828125 -1.03125 C 5.128906 -1.226562 5.335938 -1.476562 5.453125 -1.78125 L 6.4375 -1.5 C 6.03125 -0.414062 5.101562 0.125 3.65625 0.125 C 2.644531 0.125 1.875 -0.175781 1.34375 -0.78125 C 0.8125 -1.382812 0.546875 -2.28125 0.546875 -3.46875 C 0.546875 -4.59375 0.8125 -5.457031 1.34375 -6.0625 C 1.875 -6.664062 2.628906 -6.96875 3.609375 -6.96875 C 5.617188 -6.96875 6.625 -5.753906 6.625 -3.328125 L 6.625 -3.1875 Z M 5.453125 -4.046875 C 5.390625 -4.773438 5.207031 -5.300781 4.90625 -5.625 C 4.601562 -5.957031 4.164062 -6.125 3.59375 -6.125 C 3.039062 -6.125 2.601562 -5.9375 2.28125 -5.5625 C 1.957031 -5.195312 1.785156 -4.691406 1.765625 -4.046875 Z M 5.453125 -4.046875 "/></g></g></g><g fill="#000000" fill-opacity="1"><g transform="translate(186.881817, 114.496757)"><g/></g></g><g fill="#000000" fill-opacity="1"><g transform="translate(190.480906, 114.496757)"><g><path d="M 0.796875 -3.359375 C 0.796875 -4.578125 0.988281 -5.671875 1.375 -6.640625 C 1.757812 -7.617188 2.347656 -8.535156 3.140625 -9.390625 L 4.234375 -9.390625 C 3.453125 -8.515625 2.875 -7.582031 2.5 -6.59375 C 2.132812 -5.601562 1.953125 -4.523438 1.953125 -3.359375 C 1.953125 -2.179688 2.132812 -1.101562 2.5 -0.125 C 2.863281 0.851562 3.441406 1.789062 4.234375 2.6875 L 3.140625 2.6875 C 2.335938 1.820312 1.742188 0.90625 1.359375 -0.0625 C 0.984375 -1.039062 0.796875 -2.132812 0.796875 -3.34375 Z M 0.796875 -3.359375 "/></g></g></g><g fill="#000000" fill-opacity="1"><g transform="translate(194.794746, 114.496757)"><g><path d="M 0.890625 0 L 0.890625 -5.25 C 0.890625 -5.726562 0.878906 -6.257812 0.859375 -6.84375 L 1.9375 -6.84375 C 1.96875 -6.0625 1.984375 -5.597656 1.984375 -5.453125 L 2.015625 -5.453125 C 2.191406 -6.035156 2.394531 -6.429688 2.625 -6.640625 C 2.863281 -6.859375 3.203125 -6.96875 3.640625 -6.96875 C 3.785156 -6.96875 3.9375 -6.945312 4.09375 -6.90625 L 4.09375 -5.859375 C 3.945312 -5.898438 3.742188 -5.921875 3.484375 -5.921875 C 3.015625 -5.921875 2.65625 -5.71875 2.40625 -5.3125 C 2.15625 -4.90625 2.03125 -4.320312 2.03125 -3.5625 L 2.03125 0 Z M 0.890625 0 "/></g></g></g><g fill="#000000" fill-opacity="1"><g transform="translate(199.108586, 114.496757)"><g><path d="M 2.625 0.125 C 1.9375 0.125 1.414062 -0.0546875 1.0625 -0.421875 C 0.71875 -0.785156 0.546875 -1.28125 0.546875 -1.90625 C 0.546875 -2.613281 0.78125 -3.15625 1.25 -3.53125 C 1.71875 -3.914062 2.46875 -4.125 3.5 -4.15625 L 5.046875 -4.171875 L 5.046875 -4.546875 C 5.046875 -5.097656 4.925781 -5.492188 4.6875 -5.734375 C 4.445312 -5.984375 4.078125 -6.109375 3.578125 -6.109375 C 3.066406 -6.109375 2.691406 -6.019531 2.453125 -5.84375 C 2.222656 -5.664062 2.085938 -5.390625 2.046875 -5.015625 L 0.859375 -5.125 C 1.046875 -6.351562 1.957031 -6.96875 3.59375 -6.96875 C 4.457031 -6.96875 5.101562 -6.769531 5.53125 -6.375 C 5.96875 -5.976562 6.1875 -5.410156 6.1875 -4.671875 L 6.1875 -1.71875 C 6.1875 -1.382812 6.226562 -1.128906 6.3125 -0.953125 C 6.40625 -0.785156 6.578125 -0.703125 6.828125 -0.703125 C 6.941406 -0.703125 7.066406 -0.71875 7.203125 -0.75 L 7.203125 -0.03125 C 6.921875 0.03125 6.628906 0.0625 6.328125 0.0625 C 5.898438 0.0625 5.585938 -0.046875 5.390625 -0.265625 C 5.203125 -0.484375 5.097656 -0.832031 5.078125 -1.3125 L 5.046875 -1.3125 C 4.753906 -0.789062 4.414062 -0.421875 4.03125 -0.203125 C 3.644531 0.015625 3.175781 0.125 2.625 0.125 Z M 2.875 -0.734375 C 3.289062 -0.734375 3.660156 -0.828125 3.984375 -1.015625 C 4.316406 -1.203125 4.578125 -1.460938 4.765625 -1.796875 C 4.953125 -2.128906 5.046875 -2.46875 5.046875 -2.8125 L 5.046875 -3.375 L 3.796875 -3.359375 C 3.253906 -3.347656 2.84375 -3.289062 2.5625 -3.1875 C 2.289062 -3.082031 2.082031 -2.925781 1.9375 -2.71875 C 1.789062 -2.507812 1.71875 -2.234375 1.71875 -1.890625 C 1.71875 -1.515625 1.816406 -1.226562 2.015625 -1.03125 C 2.222656 -0.832031 2.507812 -0.734375 2.875 -0.734375 Z M 2.875 -0.734375 "/></g></g></g><g fill="#000000" fill-opacity="1"><g transform="translate(206.313083, 114.496757)"><g><path d="M 5.1875 -1.09375 C 4.976562 -0.65625 4.695312 -0.34375 4.34375 -0.15625 C 4 0.03125 3.570312 0.125 3.0625 0.125 C 2.195312 0.125 1.5625 -0.164062 1.15625 -0.75 C 0.75 -1.332031 0.546875 -2.210938 0.546875 -3.390625 C 0.546875 -5.773438 1.382812 -6.96875 3.0625 -6.96875 C 3.582031 -6.96875 4.015625 -6.875 4.359375 -6.6875 C 4.703125 -6.5 4.976562 -6.195312 5.1875 -5.78125 L 5.203125 -5.78125 L 5.1875 -6.546875 L 5.1875 -9.390625 L 6.328125 -9.390625 L 6.328125 -1.40625 C 6.328125 -0.695312 6.34375 -0.226562 6.375 0 L 5.28125 0 C 5.269531 -0.0625 5.253906 -0.210938 5.234375 -0.453125 C 5.222656 -0.703125 5.21875 -0.914062 5.21875 -1.09375 Z M 1.734375 -3.421875 C 1.734375 -2.472656 1.859375 -1.789062 2.109375 -1.375 C 2.367188 -0.957031 2.785156 -0.75 3.359375 -0.75 C 3.992188 -0.75 4.457031 -0.972656 4.75 -1.421875 C 5.039062 -1.867188 5.1875 -2.5625 5.1875 -3.5 C 5.1875 -4.40625 5.039062 -5.066406 4.75 -5.484375 C 4.457031 -5.910156 3.992188 -6.125 3.359375 -6.125 C 2.785156 -6.125 2.367188 -5.910156 2.109375 -5.484375 C 1.859375 -5.066406 1.734375 -4.378906 1.734375 -3.421875 Z M 1.734375 -3.421875 "/></g></g></g><g fill="#000000" fill-opacity="1"><g transform="translate(213.517581, 114.496757)"><g><path d="M 0.859375 -8.296875 L 0.859375 -9.390625 L 2 -9.390625 L 2 -8.296875 Z M 0.859375 0 L 0.859375 -6.84375 L 2 -6.84375 L 2 0 Z M 0.859375 0 "/></g></g></g><g fill="#000000" fill-opacity="1"><g transform="translate(216.395588, 114.496757)"><g><path d="M 5.0625 0 L 3.21875 -2.8125 L 1.375 0 L 0.140625 0 L 2.578125 -3.515625 L 0.265625 -6.84375 L 1.515625 -6.84375 L 3.21875 -4.1875 L 4.921875 -6.84375 L 6.1875 -6.84375 L 3.875 -3.53125 L 6.34375 0 Z M 5.0625 0 "/></g></g></g><g fill="#000000" fill-opacity="1"><g transform="translate(222.872673, 114.496757)"><g><path d="M 3.515625 -3.34375 C 3.515625 -2.125 3.320312 -1.03125 2.9375 -0.0625 C 2.550781 0.90625 1.960938 1.820312 1.171875 2.6875 L 0.078125 2.6875 C 0.867188 1.800781 1.445312 0.867188 1.8125 -0.109375 C 2.175781 -1.097656 2.359375 -2.179688 2.359375 -3.359375 C 2.359375 -4.523438 2.175781 -5.597656 1.8125 -6.578125 C 1.445312 -7.566406 0.867188 -8.503906 0.078125 -9.390625 L 1.171875 -9.390625 C 1.972656 -8.523438 2.5625 -7.609375 2.9375 -6.640625 C 3.320312 -5.671875 3.515625 -4.578125 3.515625 -3.359375 Z M 3.515625 -3.34375 "/></g></g></g></svg>